<svg width="845.7243" height="704.03133" xmlns="http://www.w3.org/2000/svg" xmlns:svg="http://www.w3.org/2000/svg">
 <g>
  <title>Layer 1</title>
  <g stroke="null" id="f1503154-f50a-4680-8aa4-587be41cac87">
   <path stroke="null" fill="#feb8b8" d="m700.627998,661.511875l-1.457845,19.37709l-29.64783,-9.688049l12.148709,-14.532073l18.956966,4.843032z" id="a9e5a31c-10e6-4175-9779-4994367672f7"/>
   <path stroke="null" fill="#feb8b8" d="m808.53147,655.214941l-1.460833,18.890802l-16.525232,2.422508l-9.720959,-9.203746l11.178804,-17.923188l16.528219,5.813623z" id="f499a4aa-6a35-40fc-8432-e4c7ab26d048"/>
   <path stroke="null" fill="#393e46" d="m820.682181,413.983311s13.123593,15.500679 -3.402634,39.236498s-36.453099,46.987334 -36.453099,46.987334l-36.944026,69.753554s-18.95597,68.300644 -23.330501,70.237857s-6.804273,-5.812631 -4.374531,2.421516s0.971897,7.750836 -0.971897,8.237124s-7.290221,-0.484303 -5.346428,2.906812s3.402634,3.391115 -0.485948,3.391115s-5.346428,-2.421516 -5.346428,0.968606s-3.402634,11.140958 -3.402634,11.140958s-23.816449,-6.781237 -24.788346,-9.688049s6.318325,-4.359721 4.86048,-7.26554s-1.943793,-2.906812 -1.943793,-7.26554s2.916686,-5.328328 2.916686,-5.328328s2.429742,-0.968606 1.457845,-2.906812s-4.86048,-0.968606 0,-3.391115s24.790338,-76.536776 24.790338,-76.536776s0,-36.818952 6.318325,-48.926532s1.457845,-98.333397 16.530211,-99.302003s89.916382,5.32932 89.916382,5.32932z" id="fb70bf31-eafd-4d8a-8310-5130d8d104e1"/>
   <path stroke="null" fill="#393e46" d="m815.821652,441.593556l-2.916686,75.081881s14.581439,72.660365 9.720959,94.942282s-1.457845,19.376097 -4.374531,23.251515s-5.346428,1.937213 -2.916686,5.328328s3.883604,4.359721 0,8.237124s-5.832376,13.079164 -5.832376,13.079164l-24.788346,-2.421516s6.318325,-11.140958 3.883604,-13.563467s-8.749062,1.45291 -3.883604,-3.870456s7.777166,-2.906812 4.86048,-5.328328s-7.290221,-1.45291 -3.402634,-5.328328s8.265106,-3.870456 4.374531,-5.328328s-8.265106,0 -6.318325,-2.906812s4.374531,-6.296934 4.374531,-6.296934l-5.832376,-44.080522s-6.804273,-14.532073 -4.86048,-20.829007s-8.265106,-58.128292 -8.265106,-58.128292l46.177045,-51.838305z" id="a89455c2-275d-4b70-b13c-192fbe474176"/>
   <path stroke="null" fill="#2f2e41" d="m805.130827,664.901997s4.86048,-4.844024 6.318325,-1.937213s12.148709,29.064146 5.832376,31.001359s-15.553335,3.870456 -20.413815,2.421516s-15.067387,-8.237124 -27.218088,-8.237124s-22.357608,-5.328328 -22.357608,-7.26554s-1.943793,-13.563467 7.290221,-13.563467s26.246191,-10.656655 26.246191,-10.656655s3.883604,-7.750836 5.832376,-7.26554s0.485948,15.984983 0.485948,15.984983s11.176813,10.65865 17.984073,-0.482318z" id="a3024be5-ad86-493a-9bfb-258ab58160a1"/>
   <path stroke="null" fill="#2f2e41" d="m697.22638,671.198941s4.374531,-10.656655 8.749062,-8.237124s1.457845,32.452284 1.457845,32.452284s-3.883604,6.296934 -15.067387,4.844024s-40.82763,-4.844024 -47.632898,-3.391115s-25.274294,-6.781237 -20.413815,-17.923188c0,0 2.429742,-6.296934 14.09549,-5.812631s33.05146,-13.563467 33.05146,-13.563467s3.402634,-9.688049 4.374531,-8.719442s1.943793,17.923188 1.943793,17.923188s12.637635,8.240101 19.441918,2.427471z" id="a57c92ce-496a-44de-934b-3ddd78679762"/>
   <circle stroke="null" fill="#feb8b8" r="28.048246" cy="196.487508" cx="760.89857" id="fa315d33-3eeb-4d45-ab88-aeb0e9694c5a"/>
   <path stroke="null" fill="#feb8b8" d="m782.770252,198.424724s15.067387,30.032753 20.413815,32.939564s-36.453099,20.829999 -36.453099,20.829999s-6.804273,-29.548449 -15.067387,-35.845383s31.106671,-17.92418 31.106671,-17.92418z" id="fbae87ba-2986-46ef-9932-134b7e0cae24"/>
   <path stroke="null" fill="#feb8b8" d="m739.51283,444.015072l-1.943793,18.407491s-20.899763,-7.26554 -14.09549,-20.829007l16.039284,2.421516z" id="fc15680c-e415-4000-ac02-b1f296562473"/>
   <path stroke="null" fill="#10375c" d="m731.252714,416.404837c14.581439,15.49671 91.859179,2.417546 91.859179,2.417546l-0.967914,-11.139966l9.720959,-10.165405l-2.914694,-47.474615s8.743088,-22.279932 10.199937,-56.188102a30.650835,30.547067 0 0 0 -0.376411,-6.230441c-5.010845,-30.375139 -54.639318,-49.938805 -56.002563,-49.479312c-0.686103,0.22528 -7.991262,4.01932 -15.615075,8.010851c-8.75205,4.582024 -17.91835,9.428033 -17.91835,9.428033c-11.666744,4.366668 -9.720959,74.121214 -13.612529,80.417156s0,28.085616 0,28.085616l-4.371544,20.828015s-14.586388,15.993895 -0.000996,31.490624z" id="ae3770ab-4aa4-41b9-9f4d-4c69df699916"/>
   <path stroke="null" opacity="0.1" d="m778.358876,262.626654s13.609542,40.689408 10.692856,68.300644s-34.509305,106.568536 -34.509305,106.568536l-10.687877,5.812631l0,13.562474l-7.521246,-20.303022l20.68268,-43.099015s-25.808071,-148.764434 21.342892,-130.842249z" id="b41fb511-fd5e-48e5-b733-0d9230f6b6d5"/>
   <path stroke="null" opacity="0.1" d="m765.594755,250.417867c14.101465,-7.748851 35.489168,12.603792 57.845781,34.394459c8.029102,7.823283 12.672498,7.03629 15.335256,2.810546c-5.010845,-30.375139 -54.639318,-49.938805 -56.002563,-49.479312c-0.686103,0.22528 -7.991262,4.01932 -15.615075,8.010851l-1.563399,4.263456z" id="efbdbf49-3b58-4bc5-8391-5fbab31acdf7"/>
   <path stroke="null" fill="#10375c" d="m765.601686,246.673439l5.832376,-15.984983s39.855733,-18.891794 66.101924,0l4.374531,27.125941s3.883604,45.049129 -18.470021,23.251515s-43.745292,-42.14331 -57.83881,-34.392474z" id="a2828270-d54b-4ede-bb2b-8639f55947f0"/>
   <path stroke="null" fill="#10375c" d="m776.938861,256.068713s13.609542,40.689408 10.692856,68.300644s-34.509305,106.568536 -34.509305,106.568536l-10.692856,5.8166l0,13.563467l-22.357608,-6.296934l4.86048,-15.984983s-7.777166,-9.688049 -2.429742,-12.59486s4.374531,-18.891794 4.374531,-18.891794s2.914684,-158.403864 50.061645,-140.480676z" id="f68da632-d878-40c3-a103-67cfc5c970db"/>
   <path stroke="null" fill="#2f2e41" d="m786.030487,208.248744c-0.460058,-2.171425 -0.398318,-4.507592 -1.441912,-6.467631c-1.566387,-2.938569 -5.166189,-4.168183 -8.493143,-4.457971c-4.247069,-0.36819 -8.526004,0.36422 -12.779048,0.074432s-8.795865,-1.905455 -10.912927,-5.592312c-0.844435,-1.470773 -1.260678,-3.202554 -2.380948,-4.47782c-2.331158,-2.653743 -6.580219,-2.24288 -9.930076,-1.105561s-6.844105,2.798637 -10.268647,1.909425c-2.879842,-8.029707 0.666187,-17.292006 6.799294,-23.237621s14.404187,-9.145192 22.619503,-11.529989c10.835255,-3.145986 23.028775,-5.004797 32.990716,0.279864c14.44601,7.66251 19.543489,27.944691 18.211114,43.061302c-0.503873,5.714381 -1.327396,12.184989 -5.962826,16.042543c-6.793349,5.654825 -16.399772,5.16953 -18.451101,-4.498661z" id="f57115f6-7f5b-4177-880b-f5eff1305e5b"/>
   <rect stroke="null" fill="#e6e6e6" height="388.640402" width="608.890324" y="2.122157" x="0.260908" id="e1abf0e4-070b-4c82-8a12-ebedd4e3db02"/>
   <rect stroke-opacity="0" stroke="#eeeeee" fill="#fff" height="316.902991" width="574.068339" y="50.867075" x="19.662985" id="ace8bea0-82e8-49b8-a50c-1e1cb532084f"/>
   <rect stroke="null" x="0" y="1.777785" fill="#32e0c4" height="25.780213" width="608.890324" id="b540f353-e277-4512-bc56-a133cea2858b"/>
   <circle stroke="null" fill="#fff" r="4.770482" cy="14.958176" cx="19.223849" id="b2b285b5-c1c3-4b12-9710-2898c7239781"/>
   <circle stroke="null" fill="#fff" r="4.770482" cy="14.958176" cx="37.422018" id="a5a428bb-42a2-4f57-9e6c-9979c01a2490"/>
   <circle stroke="null" fill="#fff" r="4.770482" cy="14.958176" cx="55.620187" id="a9929a25-14ce-4464-bac9-4165f1e3fae6"/>
   <path stroke="null" fill="#32e0c4" d="m120.09798,95.285015l-37.972683,37.371732l37.972683,37.37074l8.543928,-8.515003l-28.713773,-28.620532l28.95376,-28.855737l-8.783915,-8.7512z" id="b4a2d72b-abc3-4d2f-a2b8-a2aff6897b26"/>
   <path stroke="null" fill="#32e0c4" d="m151.211621,95.285015l37.971687,37.371732l-37.971687,37.37074l-8.543928,-8.515003l28.715765,-28.61954l-28.955752,-28.856729l8.783915,-8.7512z" id="b5120d89-6cbe-4bfa-9a1b-cf9b07deff91"/>
   <path stroke="null" fill="#e6e6e6" d="m274.037044,104.663427c-3.105887,0 -5.623259,1.78041 -5.623259,3.975653s2.517372,3.975653 5.623259,3.975653l265.094795,0c3.105887,0 5.623259,-1.78041 5.623259,-3.975653s-2.517372,-3.975653 -5.623259,-3.975653l-265.094795,0z" id="a31271bd-8e2f-469b-8cee-8b6db3f92f99"/>
   <path stroke="null" fill="#e6e6e6" d="m536.495998,322.479781l-445.95522,0c-4.558753,0 -8.253156,-2.622978 -8.258135,-5.855305l0,-78.443223c0.004979,-3.232327 3.699382,-5.855305 8.258135,-5.855305l445.95522,0c4.558753,0 8.253156,2.622978 8.258135,5.855305l0,78.442231c-0.003983,3.232347 -3.699382,5.852338 -8.258135,5.856297zm-445.95522,-87.813696c-2.735451,0 -4.952093,1.573985 -4.95508,3.513183l0,78.442231c0,1.939198 2.219629,3.511198 4.95508,3.513183l445.95522,0c2.735451,0 4.952093,-1.573985 4.95508,-3.513183l0,-78.440246c0,-1.939198 -2.219629,-3.511198 -4.95508,-3.513183l-445.95522,-0.001985z" id="bf577952-0fd5-43e0-be6b-ea1966b51a93"/>
   <circle stroke="null" fill="#e6e6e6" r="19.85075" cy="277.369128" cx="136.463873" id="f7f4957b-eaa8-456b-bf02-bacf7de3ef80"/>
   <path stroke="null" fill="#32e0c4" d="m192.736318,261.46651a3.989158,3.975653 0 0 0 -0.010326,7.951306l188.077286,0a3.989158,3.975653 0 0 0 0,-7.951306l-188.066959,0z" id="fb0f055d-da6e-47f2-bb6d-7ff26d7b746a"/>
   <path stroke="null" fill="#32e0c4" d="m192.736318,285.321439a3.989158,3.975653 0 0 0 -0.010326,7.951306l80.934662,0a3.989158,3.975653 0 0 0 0.010336,-7.951306l-80.934672,0z" id="bfcde504-8c45-4d21-843b-87b1f7e22ce0"/>
   <path stroke="null" fill="#e6e6e6" d="m272.101247,128.481617a4.002104,3.988554 0 0 0 0,7.951306l173.736501,0a4.002104,3.988554 0 0 0 0,-7.951306l-173.736501,0z" id="a66699ea-75f1-4575-b6d5-52b0b1f8e30c"/>
   <path stroke="null" fill="#e6e6e6" d="m273.244371,152.299806c-2.667737,0 -4.830606,1.78041 -4.830606,3.975653s2.162869,3.975653 4.830606,3.975653l227.73851,0c2.667737,0 4.830606,-1.78041 4.830606,-3.975653s-2.162869,-3.975653 -4.830606,-3.975653l-227.73851,0z" id="bbc4ca7b-25d4-4c7e-b3d4-0411f69bd48f"/>
  </g>
 </g>
</svg>